# xmcd
#
# Track frame offsets: 
#        150
#        4315
#        10092
#        28092
#        44550
#        62725
#        80002
#        80652
#        102144
#        105287
#        122502
#        148554
#        167201
#        183293
#        207451
#
# Disc length: 3026 seconds
#
# Revision: 1
# Processed by: cddbd v1.5.2PL0 Copyright (c) Steve Scherf et al.
# Submitted via: ExactAudioCopyFreeDBPlugin 1.0
#
DISCID=c40bd00f
DTITLE=Jodarok - Stabiili Asunnoton
DYEAR=2004
DGENRE=Hip-Hop
TTITLE0=En Siihe Lähe (Intro)
TTITLE1=Alkusanat (feat. Mr. Brown)
TTITLE2=E-I-O Originaali
TTITLE3=KELA Sitä
TTITLE4=Reissuviisu (feat. TonoSlono)
TTITLE5=Aivan Sama (feat. Hannibal)
TTITLE6=Hemmetin Simppeliä (Skit)
TTITLE7=Ylös, Ylös (vocals by Tonoslono)
TTITLE8=Missä Jäbä On (Skit)
TTITLE9=Romanttine Diskobiisi (feat. Unelma Säleikkö)
TTITLE10=Kotiin (feat. Rudy)
TTITLE11=Internettiyhteys (vocals by Aksim)
TTITLE12=Meiä Musaa (feat. Seyed Ali)
TTITLE13=Puukko-B and Lokki Freestyle
TTITLE14=0-1-3 (J.Laini Remake)
EXTD=
EXTT0=
EXTT1=
EXTT2=
EXTT3=
EXTT4=
EXTT5=
EXTT6=
EXTT7=
EXTT8=
EXTT9=
EXTT10=
EXTT11=
EXTT12=
EXTT13=
EXTT14=
PLAYORDER=
